<?xml version="1.0" encoding="UTF-8"?> <svg xmlns="http://www.w3.org/2000/svg" id="Layer_1" viewBox="0 0 1720.46 453.67"><defs><style>.cls-1{fill:#0089fc;}.cls-2{fill:#53a3f9;}.cls-3{fill:#fff;}.cls-4{fill:#04dcff;}</style></defs><path class="cls-3" d="M39.57,136.91h36.1v81.94h94.83v-81.94h36.1v202.84h-36.1v-89.96h-94.83v89.96h-36.1v-202.84ZM228.95,202.23h38.11l38.39,99.99h.57l34.09-99.99h35.81l-65.04,167.03c-2.48,6.3-5.16,11.89-8.02,16.76-2.86,4.87-6.3,8.97-10.31,12.32-4.01,3.34-8.74,5.87-14.18,7.59-5.44,1.72-11.99,2.58-19.62,2.58-2.86,0-5.78-.14-8.74-.43-2.96-.29-5.97-.81-9.03-1.58l2.86-29.8c2.29.76,4.54,1.29,6.73,1.58,2.19.29,4.25.43,6.16.43,3.63,0,6.68-.43,9.17-1.29,2.48-.86,4.58-2.2,6.3-4.01,1.72-1.82,3.24-4.06,4.58-6.73,1.33-2.68,2.77-5.83,4.3-9.46l6.88-17.48-59.02-137.52ZM429.5,202.23v19.2h.86c1.72-2.67,3.96-5.39,6.73-8.17,2.77-2.77,6.16-5.25,10.17-7.45,4.01-2.19,8.55-4.01,13.61-5.44,5.06-1.43,10.74-2.15,17.05-2.15,9.74,0,18.72,1.86,26.93,5.59,8.21,3.72,15.28,8.84,21.2,15.33,5.92,6.49,10.5,14.14,13.75,22.92,3.25,8.79,4.87,18.24,4.87,28.36s-1.58,19.63-4.73,28.51c-3.15,8.88-7.64,16.62-13.47,23.21-5.83,6.59-12.89,11.84-21.2,15.76-8.31,3.91-17.72,5.87-28.22,5.87-9.74,0-18.67-2.01-26.79-6.02-8.12-4.01-14.37-9.46-18.77-16.33h-.57v87.1h-34.38v-206.28h32.95ZM509.72,270.42c0-5.34-.81-10.65-2.43-15.9-1.62-5.25-4.06-9.98-7.31-14.18-3.25-4.2-7.36-7.59-12.32-10.17-4.97-2.58-10.79-3.87-17.48-3.87-6.3,0-11.94,1.34-16.9,4.01-4.97,2.68-9.22,6.12-12.75,10.31-3.54,4.2-6.21,8.98-8.02,14.33-1.82,5.35-2.72,10.7-2.72,16.04s.9,10.65,2.72,15.9c1.81,5.26,4.49,9.98,8.02,14.18,3.53,4.2,7.78,7.59,12.75,10.17,4.96,2.58,10.6,3.87,16.9,3.87,6.68,0,12.51-1.33,17.48-4.01,4.96-2.67,9.07-6.11,12.32-10.31,3.24-4.2,5.68-8.98,7.31-14.32,1.62-5.34,2.43-10.69,2.43-16.04ZM709.12,272.71v4.58c0,1.53-.1,3.06-.29,4.58h-104.57c.38,4.97,1.67,9.5,3.87,13.61,2.19,4.11,5.11,7.64,8.74,10.6,3.63,2.96,7.73,5.3,12.32,7.02,4.58,1.72,9.36,2.58,14.33,2.58,8.59,0,15.85-1.58,21.77-4.73,5.92-3.15,10.79-7.49,14.61-13.04l22.92,18.34c-13.56,18.34-33.24,27.5-59.02,27.5-10.7,0-20.53-1.67-29.51-5.01-8.98-3.34-16.76-8.07-23.35-14.18-6.59-6.11-11.75-13.61-15.47-22.49-3.73-8.88-5.59-18.95-5.59-30.23s1.86-21.15,5.59-30.22c3.72-9.07,8.83-16.81,15.33-23.21,6.49-6.4,14.18-11.36,23.06-14.9,8.88-3.53,18.48-5.3,28.79-5.3,9.55,0,18.38,1.58,26.5,4.73,8.12,3.15,15.14,7.84,21.06,14.04,5.92,6.21,10.55,13.94,13.9,23.21,3.34,9.27,5.01,20.11,5.01,32.52ZM674.74,257.24c0-4.39-.62-8.6-1.86-12.61-1.24-4.01-3.2-7.54-5.87-10.6-2.68-3.05-6.07-5.49-10.17-7.31-4.11-1.81-8.93-2.72-14.47-2.72-10.31,0-19.05,3.11-26.21,9.31-7.16,6.21-11.13,14.18-11.89,23.92h70.48ZM742.35,202.23h32.95v22.92h.57c3.82-8.02,9.17-14.51,16.04-19.48,6.88-4.96,14.9-7.45,24.07-7.45,1.33,0,2.77.05,4.3.14,1.53.1,2.87.34,4.01.72v31.52c-2.29-.57-4.25-.95-5.87-1.15-1.62-.19-3.2-.29-4.73-.29-7.83,0-14.14,1.43-18.91,4.3-4.78,2.86-8.5,6.3-11.17,10.31-2.68,4.01-4.49,8.12-5.44,12.32-.96,4.2-1.43,7.55-1.43,10.03v73.63h-34.38v-137.52ZM951.79,179.31c-3.82-4.96-9.22-9.12-16.19-12.46-6.97-3.34-13.99-5.01-21.06-5.01-4.2,0-8.41.53-12.61,1.58-4.2,1.05-8.02,2.68-11.46,4.87-3.44,2.2-6.26,5.06-8.45,8.6-2.2,3.54-3.29,7.78-3.29,12.75,0,4.58.95,8.5,2.86,11.75,1.91,3.25,4.53,6.02,7.88,8.31,3.34,2.29,7.4,4.3,12.18,6.02,4.77,1.72,10.03,3.44,15.76,5.16,6.49,2.1,13.22,4.49,20.2,7.16,6.97,2.68,13.37,6.21,19.19,10.6,5.82,4.4,10.6,9.93,14.33,16.62,3.72,6.69,5.59,15,5.59,24.93,0,10.89-2.01,20.39-6.02,28.51-4.01,8.12-9.36,14.85-16.04,20.2-6.69,5.35-14.52,9.36-23.49,12.03-8.98,2.67-18.44,4.01-28.36,4.01-13.18,0-26.07-2.43-38.68-7.31-12.61-4.87-22.92-12.08-30.94-21.63l25.79-24.07c4.96,6.88,11.6,12.32,19.91,16.33,8.31,4.01,16.47,6.02,24.5,6.02,4.2,0,8.5-.52,12.89-1.58,4.39-1.05,8.35-2.82,11.89-5.3,3.53-2.48,6.4-5.59,8.6-9.31,2.19-3.72,3.29-8.35,3.29-13.9s-1.24-9.79-3.72-13.32c-2.48-3.53-5.83-6.59-10.03-9.17-4.2-2.58-9.17-4.82-14.9-6.73-5.73-1.91-11.75-3.91-18.05-6.02-6.11-1.91-12.23-4.2-18.33-6.87-6.12-2.67-11.6-6.21-16.47-10.6-4.87-4.39-8.84-9.78-11.89-16.19-3.06-6.4-4.58-14.37-4.58-23.92,0-10.31,2.15-19.2,6.45-26.64,4.3-7.45,9.93-13.61,16.9-18.48,6.97-4.87,14.9-8.5,23.78-10.89,8.88-2.39,17.91-3.58,27.07-3.58,10.31,0,20.77,1.82,31.37,5.44,10.6,3.63,19.81,9.07,27.65,16.33l-23.49,25.79ZM1105.06,240.33c-2.68-3.82-6.69-7.02-12.03-9.6-5.35-2.58-10.79-3.87-16.33-3.87-6.3,0-11.85,1.29-16.62,3.87-4.78,2.58-8.74,5.97-11.89,10.17-3.15,4.2-5.49,8.93-7.02,14.18-1.53,5.26-2.29,10.56-2.29,15.9s.81,10.65,2.44,15.9c1.62,5.26,4.06,9.98,7.3,14.18,3.25,4.2,7.31,7.59,12.18,10.17,4.87,2.58,10.55,3.87,17.05,3.87,5.34,0,10.7-1.05,16.04-3.15,5.34-2.1,9.64-5.16,12.89-9.17l21.49,21.77c-5.73,6.12-13.04,10.84-21.92,14.18-8.88,3.34-18.48,5.01-28.79,5.01s-19.72-1.62-28.79-4.87c-9.07-3.24-17-8.02-23.78-14.32-6.78-6.3-12.13-13.94-16.04-22.92-3.92-8.98-5.87-19.2-5.87-30.66s1.96-21.1,5.87-30.08c3.91-8.98,9.21-16.62,15.9-22.92,6.68-6.3,14.47-11.17,23.35-14.61,8.88-3.44,18.38-5.16,28.51-5.16s19.91,1.91,29.37,5.73c9.46,3.82,16.95,9.07,22.49,15.76l-23.49,20.63ZM1236.28,322.27h-.86c-3.44,6.12-8.98,11.13-16.62,15.04-7.64,3.91-16.33,5.87-26.07,5.87-5.54,0-11.32-.72-17.33-2.15-6.02-1.43-11.56-3.82-16.62-7.16-5.06-3.34-9.27-7.74-12.61-13.18-3.34-5.44-5.01-12.18-5.01-20.2,0-10.31,2.91-18.52,8.74-24.64,5.82-6.11,13.32-10.79,22.49-14.04,9.17-3.25,19.34-5.4,30.51-6.45,11.17-1.05,22.11-1.58,32.8-1.58v-3.44c0-8.6-3.11-14.94-9.31-19.05-6.21-4.1-13.61-6.16-22.2-6.16-7.26,0-14.23,1.53-20.92,4.58-6.69,3.06-12.23,6.78-16.62,11.17l-17.76-20.91c7.83-7.26,16.85-12.7,27.07-16.33,10.22-3.63,20.58-5.44,31.09-5.44,12.22,0,22.3,1.72,30.23,5.16,7.92,3.44,14.18,7.93,18.77,13.47,4.58,5.54,7.78,11.75,9.6,18.62,1.81,6.88,2.72,13.75,2.72,20.63v83.66h-32.09v-17.48ZM1235.71,277.01h-7.74c-5.54,0-11.37.24-17.48.72-6.11.48-11.75,1.53-16.9,3.15-5.16,1.62-9.46,3.92-12.89,6.88-3.44,2.96-5.16,7.02-5.16,12.18,0,3.25.72,5.97,2.15,8.17,1.43,2.2,3.29,3.97,5.59,5.3,2.29,1.34,4.87,2.29,7.74,2.86,2.86.57,5.73.86,8.6.86,11.84,0,20.82-3.15,26.93-9.46,6.11-6.3,9.17-14.9,9.17-25.79v-4.87ZM1309.05,123.15h34.38v216.6h-34.38V123.15ZM1516.47,272.71v4.58c0,1.53-.1,3.06-.29,4.58h-104.57c.38,4.97,1.67,9.5,3.87,13.61,2.19,4.11,5.11,7.64,8.74,10.6,3.63,2.96,7.73,5.3,12.32,7.02,4.58,1.72,9.36,2.58,14.33,2.58,8.59,0,15.85-1.58,21.77-4.73,5.92-3.15,10.79-7.49,14.61-13.04l22.92,18.34c-13.56,18.34-33.24,27.5-59.02,27.5-10.7,0-20.53-1.67-29.51-5.01-8.98-3.34-16.76-8.07-23.35-14.18-6.59-6.11-11.75-13.61-15.47-22.49-3.73-8.88-5.59-18.95-5.59-30.23s1.86-21.15,5.59-30.22c3.72-9.07,8.83-16.81,15.33-23.21,6.49-6.4,14.18-11.36,23.06-14.9,8.88-3.53,18.48-5.3,28.79-5.3,9.55,0,18.38,1.58,26.5,4.73,8.12,3.15,15.14,7.84,21.06,14.04,5.92,6.21,10.55,13.94,13.9,23.21,3.34,9.27,5.01,20.11,5.01,32.52ZM1482.09,257.24c0-4.39-.62-8.6-1.86-12.61-1.24-4.01-3.2-7.54-5.87-10.6-2.68-3.05-6.07-5.49-10.17-7.31-4.11-1.81-8.93-2.72-14.47-2.72-10.31,0-19.05,3.11-26.21,9.31-7.16,6.21-11.13,14.18-11.89,23.92h70.48ZM1534.24,327.88h-6.04v-3.06h15.57v3.06h-6.04v16.63h-3.5v-16.63ZM1546.06,324.82h5.48l5.12,13.99h.08l5.06-13.99h5.51v19.69h-3.48v-15.82h-.06l-5.98,15.82h-2.45l-5.9-15.82h-.06v15.82h-3.34v-19.69Z"></path><path class="cls-1" d="M1584.32,168.36l.68,4.68c1.93,13.26,12.35,23.68,25.61,25.61l4.68.68-4.68.68c-13.26,1.93-23.68,12.35-25.61,25.61l-.68,4.68-.68-4.68c-1.93-13.26-12.35-23.68-25.61-25.61l-4.68-.68,4.68-.68c13.26-1.93,23.68-12.35,25.61-25.61l.68-4.68Z"></path><path class="cls-4" d="M1651.15,76.48l.85,5.85c2.41,16.55,15.41,29.54,31.95,31.95l5.85.85-5.85.85c-16.55,2.41-29.54,15.41-31.95,31.95l-.85,5.85-.85-5.85c-2.41-16.55-15.41-29.55-31.95-31.95l-5.85-.85,5.85-.85c16.55-2.41,29.55-15.41,31.95-31.95l.85-5.85Z"></path><path class="cls-2" d="M1513.67,27.97l1.16,7.95c3.28,22.49,20.94,40.16,43.44,43.44l7.95,1.16-7.95,1.16c-22.49,3.28-40.16,20.94-43.44,43.44l-1.16,7.95-1.16-7.95c-3.28-22.49-20.94-40.16-43.44-43.44l-7.95-1.16,7.95-1.16c22.49-3.28,40.16-20.94,43.44-43.44l1.16-7.95Z"></path></svg> 